<?xml version="1.0" encoding="UTF-8" standalone="no"?>
<svg
   width="210mm"
   height="297mm"
   viewBox="0 0 793.7007874 1122.519685"
   version="1.1"
   id="svg863"
   inkscape:version="1.2.1 (9c6d41e, 2022-07-14)"
   sodipodi:docname="graphics.svg"
   xmlns:inkscape="http://www.inkscape.org/namespaces/inkscape"
   xmlns:sodipodi="http://sodipodi.sourceforge.net/DTD/sodipodi-0.dtd"
   xmlns="http://www.w3.org/2000/svg"
   xmlns:svg="http://www.w3.org/2000/svg"
   xmlns:rdf="http://www.w3.org/1999/02/22-rdf-syntax-ns#"
   xmlns:cc="http://creativecommons.org/ns#"
   xmlns:dc="http://purl.org/dc/elements/1.1/">
  <defs
     id="defs857" />
  <sodipodi:namedview
     id="base"
     pagecolor="#ffffff"
     bordercolor="#666666"
     borderopacity="1.0"
     inkscape:pageopacity="0.0"
     inkscape:pageshadow="2"
     inkscape:zoom="0.7"
     inkscape:cx="-2152.8571"
     inkscape:cy="-480"
     inkscape:document-units="px"
     inkscape:current-layer="layer2"
     inkscape:document-rotation="0"
     showgrid="true"
     showborder="false"
     inkscape:pagecheckerboard="true"
     inkscape:window-width="1920"
     inkscape:window-height="1012"
     inkscape:window-x="0"
     inkscape:window-y="0"
     inkscape:window-maximized="1"
     inkscape:showpageshadow="2"
     inkscape:deskcolor="#d1d1d1">
    <inkscape:grid
       type="xygrid"
       id="grid1426" />
  </sodipodi:namedview>
  <metadata
     id="metadata860">
    <rdf:RDF>
      <cc:Work
         rdf:about="">
        <dc:format>image/svg+xml</dc:format>
        <dc:type
           rdf:resource="http://purl.org/dc/dcmitype/StillImage" />
      </cc:Work>
    </rdf:RDF>
  </metadata>
  <g
     inkscape:label="Layer 1"
     inkscape:groupmode="layer"
     id="layer1"
     style="fill:#ccffea;fill-opacity:1">
    <rect
       style="fill:#b7b7b7;fill-opacity:1;stroke:none;stroke-width:9.42809;stroke-linejoin:round"
       id="rect235"
       width="800"
       height="800"
       x="-2520"
       y="-960"
       ry="75.229248"
       inkscape:export-filename="src/assets/icons/main.png"
       inkscape:export-xdpi="30.719999"
       inkscape:export-ydpi="30.719999" />
  </g>
  <g
     inkscape:groupmode="layer"
     id="layer2"
     inkscape:label="Roads">
    <path
       style="fill:none;stroke:#ffffff;stroke-width:24;stroke-linecap:butt;stroke-linejoin:miter;stroke-dasharray:none;stroke-opacity:1"
       d="m -2460,-765 c 0,0 30,115 20,165 l -20,180"
       id="path2998"
       sodipodi:nodetypes="ccc" />
    <path
       style="fill:none;stroke:#00c8ff;stroke-width:16;stroke-linecap:butt;stroke-linejoin:miter;stroke-dasharray:none;stroke-opacity:1"
       d="m -2480,-260 c 0,0 40,-110 90,-150 50,-40 130,-30 130,-30"
       id="path2996"
       sodipodi:nodetypes="csc" />
    <path
       style="fill:none;stroke:#00c8ff;stroke-width:16;stroke-linecap:butt;stroke-linejoin:miter;stroke-dasharray:none;stroke-opacity:1"
       d="m -2480,-880 c 0,0 134.1119,137.60139 250,70 120,-70 200,130 200,130"
       id="path2994"
       sodipodi:nodetypes="csc" />
    <path
       style="fill:none;stroke:#00c8ff;stroke-width:16;stroke-linecap:butt;stroke-linejoin:miter;stroke-opacity:1;stroke-dasharray:none"
       d="m -2220,-440 c 0,0 0,-40 50,-80 50,-40 100,-100 100,-100"
       id="path2647" />
    <path
       style="fill:none;stroke:#ffffff;stroke-width:24;stroke-linecap:butt;stroke-linejoin:miter;stroke-dasharray:none;stroke-opacity:1"
       d="m -2280,-660 240,120"
       id="path1048"
       sodipodi:nodetypes="cc" />
    <path
       style="fill:none;stroke:#fafafa;stroke-width:24;stroke-linecap:butt;stroke-linejoin:miter;stroke-dasharray:none;stroke-opacity:1"
       d="m -2140,-585 c 0,0 -220,105 -160,185 60,80 160,180 160,180"
       id="path1158"
       sodipodi:nodetypes="csc" />
    <path
       style="fill:none;stroke:#fafafa;stroke-width:24;stroke-linecap:butt;stroke-linejoin:miter;stroke-dasharray:none;stroke-opacity:1"
       d="m -1760,-500 c -100,0 -100,200 -340,120 -94.8683,-31.62277 -160,20 -160,20"
       id="path1915"
       sodipodi:nodetypes="csc" />
    <path
       style="fill:none;stroke:#fafafa;stroke-width:24;stroke-linecap:butt;stroke-linejoin:miter;stroke-dasharray:none;stroke-opacity:1"
       d="m -1780,-880 c 0,0 -200,180 -380,120 -94.8683,-31.62278 -120,100 -120,100"
       id="path1913"
       sodipodi:nodetypes="csc" />
    <path
       style="fill:none;stroke:#ff0000;stroke-width:24;stroke-linecap:butt;stroke-linejoin:miter;stroke-dasharray:none;stroke-opacity:1"
       d="m -2460,-780 c 117.1163,-201.81236 593.8121,-150.59304 680,60 55.6102,135.87887 -260,180 -260,180 0,0 240,80 240,220 0,100 -440,140 -580,60 -100,-100 -80,-160 -80,-160 0,-80 180,-160 180,-240 0,-40 -206.9778,-73.51248 -180,-120 z"
       id="path950"
       sodipodi:nodetypes="ssccccss" />
    <path
       style="fill:#00c8ff;fill-opacity:1;stroke:none;stroke-width:1px;stroke-linecap:butt;stroke-linejoin:miter;stroke-opacity:1"
       d="m -1910,-680 c 20,40 40,60 -40,80 -80,20 -80,20 -120,0 -40,-20 -40,-50 -40,-50 -10,-60 180,-70 200,-30 z"
       id="path1917"
       sodipodi:nodetypes="ssscs" />
    <path
       style="fill:#00c8ff;fill-opacity:1;stroke:none;stroke-width:0.373175px;stroke-linecap:butt;stroke-linejoin:miter;stroke-opacity:1"
       d="m -2195.2694,-450.2521 c 7.3653,15.12605 14.7306,22.68908 -14.7306,30.2521 -29.4612,7.56303 -29.4612,7.56303 -44.1918,0 -14.7306,-7.56302 -14.7306,-18.90756 -14.7306,-18.90756 -3.6826,-22.68908 66.2877,-26.47059 73.653,-11.34454 z"
       id="path1919"
       sodipodi:nodetypes="ssscs" />
  </g>
</svg>
